<?xml version="1.0" encoding="UTF-8" standalone="no"?>
<svg
   xmlns:dc="http://purl.org/dc/elements/1.1/"
   xmlns:cc="http://creativecommons.org/ns#"
   xmlns:rdf="http://www.w3.org/1999/02/22-rdf-syntax-ns#"
   xmlns:svg="http://www.w3.org/2000/svg"
   xmlns="http://www.w3.org/2000/svg"
   xmlns:sodipodi="http://sodipodi.sourceforge.net/DTD/sodipodi-0.dtd"
   xmlns:inkscape="http://www.inkscape.org/namespaces/inkscape"
   width="821px"
   height="96px"
   viewBox="0 0 821 96"
   version="1.1"
   id="svg3797"
   sodipodi:docname="appland_logo_white.svg"
   inkscape:version="0.92.3 (2405546, 2018-03-11)">
  <metadata
     id="metadata3803">
    <rdf:RDF>
      <cc:Work
         rdf:about="">
        <dc:format>image/svg+xml</dc:format>
        <dc:type
           rdf:resource="http://purl.org/dc/dcmitype/StillImage" />
        <dc:title>Group 2</dc:title>
      </cc:Work>
    </rdf:RDF>
  </metadata>
  <defs
     id="defs3801" />
  <sodipodi:namedview
     pagecolor="#ffffff"
     bordercolor="#666666"
     borderopacity="1"
     objecttolerance="10"
     gridtolerance="10"
     guidetolerance="10"
     inkscape:pageopacity="0"
     inkscape:pageshadow="2"
     inkscape:window-width="1511"
     inkscape:window-height="791"
     id="namedview3799"
     showgrid="false"
     inkscape:zoom="1.183922"
     inkscape:cx="1648.3794"
     inkscape:cy="48"
     inkscape:window-x="103"
     inkscape:window-y="59"
     inkscape:window-maximized="0"
     inkscape:current-layer="svg3797" />
  <!-- Generator: Sketch 52.5 (67469) - http://www.bohemiancoding.com/sketch -->
  <title
     id="title3778">Group 2</title>
  <desc
     id="desc3780">Created with Sketch.</desc>
  <path
     style="fill:#ffffff;fill-rule:evenodd;stroke:none;stroke-width:1;fill-opacity:1"
     inkscape:connector-curvature="0"
     id="Combined-Shape"
     d="M 21.335294,70.779661 16.069853,83.389831 10.804412,96 H 0 L 41.85,0 h 9.573529 L 79.644576,65.162349 93,96 H 82.058824 L 73.98865,76.92058 71.391176,70.779661 H 43.665872 Z m 50.055882,0 L 45.952941,10.847458 35.224088,36.485242 21.335294,70.779661 Z" />
  <path
     style="fill:#ffffff;fill-rule:evenodd;stroke:none;stroke-width:1;fill-opacity:1"
     inkscape:connector-curvature="0"
     id="path3783"
     d="M 479.33529,70.779661 474.06985,83.389831 468.80441,96 H 458 L 499.85,0 h 9.57353 L 537.64458,65.162349 551,96 h -10.94118 l -8.07017,-19.07942 -2.59747,-6.140919 h -27.72531 z m 50.05589,0 -25.43824,-59.932203 -10.72885,25.637784 -13.8888,34.294419 z" />
  <path
     style="fill:#ffffff;fill-rule:evenodd;stroke:none;stroke-width:1;fill-opacity:1"
     inkscape:connector-curvature="0"
     id="path3785"
     d="m 144,0 h 26.87927 c 4.83829,0 9.22853,0.51976881 13.17084,1.559322 3.94232,1.0395532 7.32459,2.6214583 10.14693,4.7457627 2.82234,2.1243045 4.99506,4.7909443 6.51822,8.0000003 C 202.23843,17.51414 203,21.288114 203,25.627119 c 0,4.339004 -0.78397,8.112978 -2.35194,11.322033 -1.56796,3.209056 -3.76308,5.875696 -6.58542,8 -2.82234,2.124305 -6.22701,3.728809 -10.21412,4.81356 -3.98711,1.084751 -8.39975,1.627119 -13.23804,1.627119 H 153.67654 V 96 H 144 Z m 9.40774,43.525424 h 16.39636 c 7.61583,0 13.39482,-1.491511 17.33713,-4.474576 3.94231,-2.983066 5.91344,-7.322006 5.91344,-13.01695 0,-5.966131 -2.03833,-10.327669 -6.11503,-13.084745 -4.07671,-2.757076 -9.7885,-4.1355937 -17.13554,-4.1355937 h -16.39636 z" />
  <path
     style="fill:#ffffff;fill-rule:evenodd;stroke:none;stroke-width:1;fill-opacity:1"
     inkscape:connector-curvature="0"
     id="path3787"
     d="m 259,0 h 26.87927 c 4.83829,0 9.22853,0.51976881 13.17084,1.559322 3.94232,1.0395532 7.32459,2.6214583 10.14693,4.7457627 2.82234,2.1243045 4.99506,4.7909443 6.51822,8.0000003 C 317.23843,17.51414 318,21.288114 318,25.627119 c 0,4.339004 -0.78397,8.112978 -2.35194,11.322033 -1.56796,3.209056 -3.76308,5.875696 -6.58542,8 -2.82234,2.124305 -6.22701,3.728809 -10.21412,4.81356 -3.98711,1.084751 -8.39975,1.627119 -13.23804,1.627119 H 268.67654 V 96 H 259 Z m 9.40774,43.525424 h 16.39636 c 7.61583,0 13.39482,-1.491511 17.33713,-4.474576 3.94231,-2.983066 5.91344,-7.322006 5.91344,-13.01695 0,-5.966131 -2.03833,-10.327669 -6.11503,-13.084745 -4.07671,-2.757076 -9.7885,-4.1355937 -17.13554,-4.1355937 h -16.39636 z" />
  <polygon
     style="fill:#ffffff;fill-rule:evenodd;stroke:none;stroke-width:1;fill-opacity:1"
     points="380.67164,87.322034 425,87.322034 425,96 371,96 371,0 380.67164,0 "
     id="Path" />
  <polygon
     style="fill:#ffffff;fill-rule:evenodd;stroke:none;stroke-width:1;fill-opacity:1"
     points="609.02083,13.423729 608.75,13.423729 608.75,96 599,96 599,0 611.1875,0 666.97917,81.762712 667.25,81.762712 667.25,0 677,0 677,96 664.8125,96 "
     id="polygon3790" />
  <path
     style="fill:#ffffff;fill-rule:evenodd;stroke:none;stroke-width:1;fill-opacity:1"
     inkscape:connector-curvature="0"
     id="path3792"
     d="m 740,0 h 31.35914 c 5.87153,0 11.76521,0.99434034 17.68122,2.9830509 5.91601,1.9887105 11.25368,4.9943301 16.01318,9.0169491 4.7595,4.022619 8.60707,9.039518 11.54284,15.050847 C 819.53214,33.062177 821,40.045158 821,48 c 0,8.045238 -1.46786,15.050818 -4.40362,21.016949 -2.93577,5.966132 -6.78334,10.960432 -11.54284,14.983051 -4.7595,4.022619 -10.09717,7.028239 -16.01318,9.016949 C 783.12435,95.00566 777.23067,96 771.35914,96 H 740 Z m 9.34102,87.457627 h 19.08237 c 7.11701,0 13.32205,-1.129932 18.61533,-3.38983 5.29327,-2.259899 9.67461,-5.220321 13.14415,-8.881356 3.46954,-3.661036 6.07165,-7.841785 7.80642,-12.542373 1.73477,-4.700589 2.60214,-9.536699 2.60214,-14.508475 0,-4.971776 -0.86737,-9.807886 -2.60214,-14.508474 -1.73477,-4.700589 -4.33688,-8.881338 -7.80642,-12.542373 C 796.71333,17.42371 792.33199,14.463288 787.03872,12.20339 781.74544,9.9434915 775.5404,8.8135593 768.42339,8.8135593 h -19.08237 z" />
</svg>
